<svg width="57" height="60" viewBox="0 0 57 60" fill="none" xmlns="http://www.w3.org/2000/svg">
<g clip-path="url(#clip0_511:90)">
<path d="M40.1848 22.684C39.2695 22.2387 38.134 22.6277 37.684 23.5629C37.2375 24.4969 37.6324 25.6172 38.5664 26.0637C40.2211 26.8594 41.25 28.3664 41.25 30C41.25 31.6336 40.2211 33.1406 38.5664 33.9352C37.6324 34.3816 37.2375 35.5031 37.684 36.4359C38.1363 37.3793 39.2707 37.759 40.1848 37.3148C43.1543 35.8922 45 33.0891 45 30C45 26.9109 43.1543 24.1066 40.1848 22.684V22.684ZM27.1652 7.5C26.4727 7.5 25.7684 7.75547 25.1988 8.32617L14.7727 18.75H2.8125C1.25859 18.75 0 20.0086 0 21.5625V38.4375C0 39.9902 1.25859 41.25 2.8125 41.25H14.7727L25.1988 51.6738C25.7695 52.2445 26.4738 52.5 27.1652 52.5C28.6102 52.5 30 51.3844 30 49.6852V10.3148C30 8.61445 28.609 7.5 27.1652 7.5ZM26.25 47.4223L16.3254 37.5H3.75V22.5H16.3254L26.25 12.5777V47.4223V47.4223ZM56.25 29.9988C56.25 22.2504 52.2633 15.1605 45.8426 11.4984C44.9414 10.9852 43.7812 11.2898 43.2598 12.1887C42.7383 13.0863 43.0523 14.2324 43.9582 14.7504C49.2047 17.7445 52.4672 23.5863 52.4672 29.9988C52.4672 36.4113 49.2047 42.2543 43.9582 45.2473C43.0535 45.7652 42.7395 46.9113 43.2598 47.809C43.7637 48.6738 44.9074 49.0324 45.8426 48.4992C52.2633 44.8383 56.25 37.7484 56.25 29.9988Z" fill="white"/>
</g>
<defs>
<clipPath id="clip0_511:90">
<rect width="56.25" height="60" fill="white"/>
</clipPath>
</defs>
</svg>
